<svg width="367" height="82" viewBox="0 0 367 82" fill="none" xmlns="http://www.w3.org/2000/svg">
<path d="M43.6732 0C38.1116 0 -0.194198 5.10202 0.60989 10.2709C0.940596 12.3967 7.87926 13.6558 15.8801 14.758C27.4265 12.1487 42.0762 10.2709 42.0762 10.2709L43.6732 0Z" fill="#DBDBDB"/>
<path d="M34.24 36.7272C33.8831 38.9329 26.2156 40.0181 18.7799 41.1115C11.3367 40.0181 3.65917 38.9329 3.30224 36.7272C2.95057 34.554 10.7469 33.4592 18.776 32.3772C26.8002 33.4592 34.5917 34.554 34.24 36.7272Z" fill="#DBDBDB"/>
<path d="M30.1999 63.0396C29.7704 65.8381 20.3007 66.8552 13.7495 68.3686C9.75544 66.8302 6.57716 64.9349 6.29434 63.0396C5.97223 60.8811 11.9996 59.8008 18.2472 58.7307C24.4994 59.8008 30.5313 60.8811 30.1999 63.0396Z" fill="#DBDBDB"/>
<path d="M39.0263 24.3424L37.4421 34.4854C37.8324 31.958 29.1843 30.6847 20.2779 29.4264C11.2349 28.1487 1.92577 26.8864 1.54047 24.3424L0 14.1555C0.323532 16.2504 7.11169 17.4911 14.939 18.5771C26.1432 20.1318 39.4766 21.3696 39.0263 24.3424Z" fill="#DBDBDB"/>
<path d="M33.1916 50.2223L31.7483 59.4837C32.1032 57.1803 25.6411 56.0276 18.9428 54.8857C12.1168 53.722 5.04564 52.5697 4.69397 50.2223L3.29053 40.9609C3.65147 43.3032 11.415 44.4557 18.9416 45.6168C26.3596 46.7611 33.5473 47.9139 33.1916 50.2223Z" fill="#DBDBDB"/>
<path d="M7.46165 73.8907C8.05574 77.8223 21.4822 81.7711 25.6918 81.7711L26.9225 73.9078C23.8336 73.8981 17.8336 72.6273 13.0921 70.808C9.44361 69.4082 6.54033 67.6836 6.28198 65.959L7.46165 73.8907Z" fill="#DBDBDB"/>
<path d="M75.2274 31.6724C74.3813 31.107 73.3369 30.6359 72.0941 30.259C70.8514 29.8821 69.4368 29.6937 67.8503 29.6937C66.0788 29.6937 64.5849 29.9629 63.3686 30.5013C62.1523 31.0128 61.1608 31.7397 60.394 32.6819C59.6536 33.6241 59.1116 34.7682 58.7678 36.1143C58.4506 37.4334 58.2919 38.9005 58.2919 40.5158C58.2919 44.2039 59.0851 46.9902 60.6716 48.8746C62.2581 50.7591 64.6245 51.7013 67.771 51.7013C69.4368 51.7013 70.9704 51.459 72.3718 50.9744C73.7731 50.4899 74.8969 49.8976 75.743 49.1977L76.5362 51.9032C75.4786 52.5493 74.1962 53.1281 72.689 53.6396C71.2084 54.1241 69.5293 54.3664 67.652 54.3664C65.4839 54.3664 63.6066 54.003 62.0201 53.2761C60.4336 52.5493 59.1116 51.5667 58.0539 50.3283C57.0227 49.09 56.2559 47.6632 55.7536 46.048C55.2512 44.4058 55 42.6694 55 40.8388C55 38.9275 55.2776 37.1372 55.8329 35.4682C56.3882 33.7991 57.2078 32.3454 58.2919 31.107C59.4024 29.8418 60.7641 28.8457 62.377 28.1188C64.0164 27.392 65.9201 27.0286 68.0883 27.0286C69.5161 27.0286 70.9439 27.1901 72.3718 27.5131C73.7996 27.8093 75.0291 28.2265 76.0603 28.7649L75.2274 31.6724Z" fill="#DBDBDB"/>
<path d="M88.8267 34.7009C90.4396 34.7009 91.8277 34.9836 92.9911 35.5489C94.1545 36.0873 95.1064 36.8277 95.8467 37.7699C96.6135 38.6852 97.1688 39.7485 97.5125 40.96C97.8827 42.1445 98.0678 43.3963 98.0678 44.7154C98.0678 46.0345 97.8827 47.2863 97.5125 48.4708C97.1688 49.6284 96.6268 50.6514 95.8864 51.5398C95.1461 52.4012 94.1942 53.0877 93.0308 53.5992C91.8938 54.1107 90.5453 54.3664 88.9853 54.3664C87.3724 54.3664 85.971 54.0972 84.7812 53.5588C83.6178 53.0204 82.6527 52.307 81.8859 51.4186C81.1191 50.5033 80.5506 49.4534 80.1804 48.2689C79.8103 47.0844 79.6252 45.8326 79.6252 44.5135C79.6252 43.1944 79.8103 41.9426 80.1804 40.7581C80.5506 39.5736 81.1059 38.5371 81.8462 37.6487C82.613 36.7334 83.5781 36.02 84.7415 35.5085C85.9049 34.9701 87.2666 34.7009 88.8267 34.7009ZM88.9456 52.2262C90.0033 52.2262 90.9155 52.0243 91.6823 51.6205C92.4755 51.2167 93.1233 50.6783 93.6257 50.0053C94.1545 49.3053 94.5379 48.5112 94.7759 47.6228C95.0139 46.7075 95.1328 45.7518 95.1328 44.7558C95.1328 43.7328 95.0006 42.7502 94.7362 41.808C94.4983 40.8657 94.1149 40.0447 93.586 39.3447C93.0572 38.6179 92.383 38.0391 91.5633 37.6084C90.7701 37.1776 89.8182 36.9623 88.7077 36.9623C87.6236 36.9623 86.6981 37.1642 85.9314 37.568C85.1646 37.9718 84.53 38.5102 84.0276 39.1832C83.5252 39.8562 83.155 40.6504 82.9171 41.5657C82.6791 42.4541 82.5601 43.3963 82.5601 44.3923C82.5601 45.4153 82.6791 46.3979 82.9171 47.3401C83.1815 48.2824 83.5649 49.1169 84.0673 49.8438C84.5961 50.5706 85.2571 51.1494 86.0503 51.5801C86.87 52.0109 87.8351 52.2262 88.9456 52.2262Z" fill="#DBDBDB"/>
<path d="M115.699 53.8818V41.6061C115.699 39.9639 115.329 38.8063 114.589 38.1333C113.848 37.4334 112.923 37.0834 111.812 37.0834C110.464 37.0834 109.248 37.5141 108.164 38.3756C107.079 39.2101 106.299 40.4081 105.823 41.9695V53.8818H103.047V35.3066H105.229L105.546 38.7794H105.704C106.048 37.6487 106.762 36.6931 107.846 35.9124C108.957 35.1047 110.385 34.7009 112.13 34.7009C113.716 34.7009 115.038 35.0644 116.096 35.7912C117.18 36.4911 117.867 37.4872 118.158 38.7794C118.423 38.241 118.753 37.7295 119.15 37.2449C119.546 36.7604 120.022 36.3296 120.578 35.9527C121.133 35.5758 121.767 35.2797 122.481 35.0644C123.195 34.8221 124.002 34.7009 124.901 34.7009C125.72 34.7009 126.5 34.8221 127.241 35.0644C128.008 35.2797 128.669 35.6431 129.224 36.1546C129.805 36.6661 130.268 37.3391 130.612 38.1737C130.956 39.0082 131.128 40.0312 131.128 41.2426V53.8818H128.351V41.6061C128.351 39.9639 127.981 38.8063 127.241 38.1333C126.5 37.4334 125.575 37.0834 124.464 37.0834C123.116 37.0834 121.9 37.5141 120.816 38.3756C119.731 39.2101 118.951 40.4081 118.476 41.9695V53.8818H115.699Z" fill="#DBDBDB"/>
<path d="M146.928 34.7009C148.276 34.7009 149.453 34.9701 150.458 35.5085C151.462 36.047 152.295 36.7604 152.956 37.6487C153.617 38.5371 154.106 39.5736 154.424 40.7581C154.767 41.9156 154.939 43.1405 154.939 44.4327C154.939 45.7787 154.754 47.0575 154.384 48.2689C154.04 49.4534 153.512 50.5033 152.798 51.4186C152.11 52.307 151.238 53.0204 150.18 53.5588C149.122 54.0972 147.893 54.3664 146.491 54.3664C144.72 54.3664 143.266 53.9761 142.129 53.1954C140.992 52.4147 140.251 51.4455 139.908 50.2879V64.3809H137.131V35.3066H139.313L139.63 38.7794H139.789C140.106 38.2948 140.489 37.8103 140.939 37.3257C141.415 36.8142 141.957 36.37 142.565 35.9931C143.173 35.6162 143.834 35.3066 144.548 35.0644C145.288 34.8221 146.082 34.7009 146.928 34.7009ZM146.214 37.0834C144.945 37.0834 143.755 37.4334 142.644 38.1333C141.56 38.8332 140.648 39.8428 139.908 41.1619V47.0979C140.146 47.8786 140.489 48.565 140.939 49.1573C141.388 49.7495 141.904 50.261 142.486 50.6918C143.094 51.1225 143.728 51.4455 144.389 51.6609C145.077 51.8763 145.764 51.9839 146.452 51.9839C147.377 51.9839 148.184 51.7955 148.871 51.4186C149.559 51.0417 150.127 50.5168 150.577 49.8438C151.053 49.1707 151.409 48.39 151.647 47.5017C151.885 46.6133 152.004 45.6576 152.004 44.6346C152.004 43.6655 151.885 42.7233 151.647 41.808C151.436 40.8927 151.092 40.085 150.616 39.3851C150.14 38.6852 149.532 38.1333 148.792 37.7295C148.078 37.2988 147.219 37.0834 146.214 37.0834Z" fill="#DBDBDB"/>
<path d="M162.959 53.8818H160.182V24H162.959V53.8818Z" fill="#DBDBDB"/>
<path d="M177.565 34.7009C179.892 34.7009 181.69 35.3066 182.959 36.5181C184.228 37.7026 184.863 39.3851 184.863 41.5657C184.863 42.0233 184.837 42.4944 184.784 42.979C184.731 43.4367 184.638 43.7732 184.506 43.9885H171.14V44.3923C171.14 45.4153 171.272 46.3979 171.537 47.3401C171.801 48.2824 172.198 49.1169 172.727 49.8438C173.255 50.5706 173.916 51.1494 174.71 51.5801C175.529 52.0109 176.494 52.2262 177.605 52.2262C178.24 52.2262 178.861 52.1589 179.469 52.0243C180.077 51.8628 180.659 51.6744 181.214 51.459C181.769 51.2167 182.285 50.961 182.761 50.6918C183.237 50.4225 183.66 50.1533 184.03 49.8841L184.506 52.1858C184.162 52.4012 183.739 52.6435 183.237 52.9127C182.735 53.155 182.179 53.3838 181.571 53.5992C180.963 53.8145 180.289 53.9895 179.548 54.1241C178.834 54.2857 178.081 54.3664 177.288 54.3664C175.807 54.3664 174.498 54.1107 173.361 53.5992C172.224 53.0608 171.272 52.3474 170.506 51.459C169.739 50.5437 169.157 49.4938 168.76 48.3093C168.364 47.1248 168.166 45.8864 168.166 44.5942C168.166 43.2751 168.364 42.0233 168.76 40.8388C169.184 39.6274 169.792 38.564 170.585 37.6487C171.378 36.7334 172.356 36.02 173.52 35.5085C174.71 34.9701 176.058 34.7009 177.565 34.7009ZM177.446 36.9623C175.701 36.9623 174.34 37.4334 173.361 38.3756C172.409 39.2909 171.762 40.4485 171.418 41.8483H182.245C182.272 41.7137 182.285 41.5926 182.285 41.4849C182.285 41.3772 182.285 41.2561 182.285 41.1215C182.285 40.4485 182.153 39.8562 181.888 39.3447C181.624 38.8063 181.267 38.3621 180.818 38.0122C180.368 37.6622 179.852 37.4064 179.271 37.2449C178.689 37.0565 178.081 36.9623 177.446 36.9623Z" fill="#DBDBDB"/>
<path d="M190.717 37.2045H187.663V35.7105L190.796 35.3066L191.391 29.6937H193.493V35.3066H197.777V37.2045H193.493V50.086C193.493 50.9475 193.612 51.5128 193.85 51.782C194.115 52.0512 194.511 52.1858 195.04 52.1858C195.648 52.1858 196.19 52.0916 196.666 51.9032C197.142 51.7147 197.565 51.4859 197.936 51.2167L198.491 53.3569C198.041 53.5723 197.446 53.7876 196.706 54.003C195.992 54.2184 195.199 54.326 194.326 54.326C193.48 54.326 192.819 54.2049 192.343 53.9626C191.867 53.7203 191.51 53.3973 191.272 52.9935C191.034 52.5897 190.876 52.1455 190.796 51.6609C190.744 51.1494 190.717 50.6514 190.717 50.1668V37.2045Z" fill="#DBDBDB"/>
<path d="M210.488 34.7009C212.814 34.7009 214.612 35.3066 215.881 36.5181C217.151 37.7026 217.785 39.3851 217.785 41.5657C217.785 42.0233 217.759 42.4944 217.706 42.979C217.653 43.4367 217.56 43.7732 217.428 43.9885H204.062V44.3923C204.062 45.4153 204.195 46.3979 204.459 47.3401C204.723 48.2824 205.12 49.1169 205.649 49.8438C206.178 50.5706 206.839 51.1494 207.632 51.5801C208.452 52.0109 209.417 52.2262 210.527 52.2262C211.162 52.2262 211.783 52.1589 212.391 52.0243C212.999 51.8628 213.581 51.6744 214.136 51.459C214.692 51.2167 215.207 50.961 215.683 50.6918C216.159 50.4225 216.582 50.1533 216.952 49.8841L217.428 52.1858C217.085 52.4012 216.661 52.6435 216.159 52.9127C215.657 53.155 215.101 53.3838 214.493 53.5992C213.885 53.8145 213.211 53.9895 212.471 54.1241C211.757 54.2857 211.003 54.3664 210.21 54.3664C208.729 54.3664 207.42 54.1107 206.283 53.5992C205.146 53.0608 204.195 52.3474 203.428 51.459C202.661 50.5437 202.079 49.4938 201.683 48.3093C201.286 47.1248 201.088 45.8864 201.088 44.5942C201.088 43.2751 201.286 42.0233 201.683 40.8388C202.106 39.6274 202.714 38.564 203.507 37.6487C204.3 36.7334 205.279 36.02 206.442 35.5085C207.632 34.9701 208.98 34.7009 210.488 34.7009ZM210.369 36.9623C208.623 36.9623 207.262 37.4334 206.283 38.3756C205.332 39.2909 204.684 40.4485 204.34 41.8483H215.168C215.194 41.7137 215.207 41.5926 215.207 41.4849C215.207 41.3772 215.207 41.2561 215.207 41.1215C215.207 40.4485 215.075 39.8562 214.811 39.3447C214.546 38.8063 214.189 38.3621 213.74 38.0122C213.29 37.6622 212.775 37.4064 212.193 37.2449C211.611 37.0565 211.003 36.9623 210.369 36.9623Z" fill="#DBDBDB"/>
<path d="M234.908 33.651C234.908 34.324 235.027 34.8894 235.265 35.347C235.529 35.7778 235.926 36.1681 236.455 36.5181C237.01 36.868 237.697 37.2045 238.517 37.5276C239.363 37.8237 240.368 38.1737 241.531 38.5775C242.51 38.9005 243.475 39.2774 244.427 39.7082C245.379 40.112 246.225 40.6235 246.965 41.2426C247.732 41.8349 248.34 42.5887 248.789 43.504C249.239 44.3923 249.464 45.4826 249.464 46.7748C249.464 48.1478 249.199 49.3188 248.67 50.2879C248.142 51.2571 247.441 52.0512 246.568 52.6704C245.696 53.2627 244.691 53.6934 243.554 53.9626C242.417 54.2318 241.241 54.3664 240.024 54.3664C238.306 54.3664 236.706 54.151 235.225 53.7203C233.744 53.2896 232.462 52.7646 231.378 52.1455L232.211 49.1977C232.713 49.5476 233.216 49.8841 233.718 50.2072C234.22 50.5033 234.762 50.7591 235.344 50.9744C235.952 51.1898 236.613 51.3648 237.327 51.4994C238.041 51.634 238.861 51.7013 239.786 51.7013C240.976 51.7013 241.994 51.5936 242.84 51.3782C243.686 51.1629 244.374 50.8667 244.903 50.4898C245.431 50.086 245.815 49.6149 246.053 49.0765C246.291 48.5381 246.41 47.9593 246.41 47.3401C246.41 46.4248 246.198 45.6576 245.775 45.0384C245.352 44.3923 244.797 43.8405 244.109 43.3828C243.448 42.9252 242.708 42.5483 241.888 42.2522C241.095 41.9291 240.302 41.633 239.509 41.3638C238.372 40.9869 237.34 40.5831 236.415 40.1523C235.49 39.7216 234.696 39.2101 234.035 38.6179C233.401 38.0256 232.898 37.3391 232.528 36.5584C232.184 35.7778 232.013 34.849 232.013 33.7722C232.013 32.5607 232.224 31.5378 232.647 30.7032C233.097 29.8418 233.692 29.1418 234.432 28.6034C235.199 28.065 236.098 27.6747 237.129 27.4324C238.16 27.1632 239.271 27.0286 240.46 27.0286C241.888 27.0286 243.263 27.1766 244.585 27.4728C245.907 27.7689 247.031 28.1323 247.957 28.563L247.124 31.6724C246.701 31.2955 246.198 30.9859 245.616 30.7436C245.061 30.4744 244.466 30.2725 243.832 30.1379C243.224 29.9764 242.615 29.8687 242.007 29.8148C241.399 29.7341 240.831 29.6937 240.302 29.6937C238.636 29.6937 237.314 30.0167 236.336 30.6628C235.384 31.282 234.908 32.2781 234.908 33.651Z" fill="#DBDBDB"/>
<path d="M262.385 34.7009C263.998 34.7009 265.386 34.9836 266.549 35.5489C267.713 36.0873 268.664 36.8277 269.405 37.7699C270.172 38.6852 270.727 39.7485 271.071 40.96C271.441 42.1445 271.626 43.3963 271.626 44.7154C271.626 46.0345 271.441 47.2863 271.071 48.4708C270.727 49.6284 270.185 50.6514 269.444 51.5398C268.704 52.4012 267.752 53.0877 266.589 53.5992C265.452 54.1107 264.103 54.3664 262.543 54.3664C260.93 54.3664 259.529 54.0972 258.339 53.5588C257.176 53.0204 256.211 52.307 255.444 51.4186C254.677 50.5033 254.109 49.4534 253.738 48.2689C253.368 47.0844 253.183 45.8326 253.183 44.5135C253.183 43.1944 253.368 41.9426 253.738 40.7581C254.109 39.5736 254.664 38.5371 255.404 37.6487C256.171 36.7334 257.136 36.02 258.3 35.5085C259.463 34.9701 260.825 34.7009 262.385 34.7009ZM262.504 52.2262C263.561 52.2262 264.473 52.0243 265.24 51.6205C266.034 51.2167 266.681 50.6783 267.184 50.0053C267.713 49.3053 268.096 48.5112 268.334 47.6228C268.572 46.7075 268.691 45.7518 268.691 44.7558C268.691 43.7328 268.559 42.7502 268.294 41.808C268.056 40.8657 267.673 40.0447 267.144 39.3447C266.615 38.6179 265.941 38.0391 265.121 37.6084C264.328 37.1776 263.376 36.9623 262.266 36.9623C261.182 36.9623 260.256 37.1642 259.489 37.568C258.723 37.9718 258.088 38.5102 257.586 39.1832C257.083 39.8562 256.713 40.6504 256.475 41.5657C256.237 42.4541 256.118 43.3963 256.118 44.3923C256.118 45.4153 256.237 46.3979 256.475 47.3401C256.739 48.2824 257.123 49.1169 257.625 49.8438C258.154 50.5706 258.815 51.1494 259.608 51.5801C260.428 52.0109 261.393 52.2262 262.504 52.2262Z" fill="#DBDBDB"/>
<path d="M279.619 53.8818H276.843V24H279.619V53.8818Z" fill="#DBDBDB"/>
<path d="M288.634 35.3066V47.5824C288.634 48.417 288.726 49.1169 288.911 49.6822C289.123 50.2476 289.387 50.7052 289.705 51.0552C290.048 51.3782 290.445 51.6205 290.894 51.782C291.37 51.9166 291.886 51.9839 292.441 51.9839C293.102 51.9839 293.75 51.8897 294.385 51.7013C295.046 51.4859 295.654 51.1763 296.209 50.7725C296.764 50.3687 297.254 49.8707 297.677 49.2784C298.1 48.6862 298.43 47.9997 298.668 47.219V35.3066H301.444V53.8818H299.263L298.946 50.4091H298.787C298.443 51.5398 297.677 52.482 296.487 53.2357C295.297 53.9895 293.816 54.3664 292.045 54.3664C291.199 54.3664 290.392 54.2587 289.625 54.0434C288.885 53.828 288.237 53.478 287.682 52.9935C287.127 52.482 286.677 51.8224 286.333 51.0148C286.016 50.1803 285.857 49.1573 285.857 47.9459V35.3066H288.634Z" fill="#DBDBDB"/>
<path d="M308.462 37.2045H305.408V35.7105L308.542 35.3066L309.137 29.6937H311.239V35.3066H315.522V37.2045H311.239V50.086C311.239 50.9475 311.358 51.5128 311.596 51.782C311.86 52.0512 312.257 52.1858 312.785 52.1858C313.394 52.1858 313.936 52.0916 314.412 51.9032C314.888 51.7147 315.311 51.4859 315.681 51.2167L316.236 53.3569C315.787 53.5723 315.192 53.7876 314.451 54.003C313.737 54.2184 312.944 54.326 312.072 54.326C311.225 54.326 310.564 54.2049 310.089 53.9626C309.613 53.7203 309.256 53.3973 309.018 52.9935C308.78 52.5897 308.621 52.1455 308.542 51.6609C308.489 51.1494 308.462 50.6514 308.462 50.1668V37.2045Z" fill="#DBDBDB"/>
<path d="M322.839 53.8818H320.062V35.3066H322.839V53.8818ZM319.468 28.5227C319.468 27.9842 319.653 27.4997 320.023 27.0689C320.419 26.6382 320.895 26.4229 321.451 26.4229C321.979 26.4229 322.455 26.6382 322.878 27.0689C323.301 27.4997 323.513 27.9842 323.513 28.5227C323.513 29.088 323.301 29.5726 322.878 29.9764C322.455 30.3533 321.979 30.5417 321.451 30.5417C320.895 30.5417 320.419 30.3533 320.023 29.9764C319.653 29.5726 319.468 29.088 319.468 28.5227Z" fill="#DBDBDB"/>
<path d="M337.021 34.7009C338.634 34.7009 340.022 34.9836 341.186 35.5489C342.349 36.0873 343.301 36.8277 344.041 37.7699C344.808 38.6852 345.363 39.7485 345.707 40.96C346.077 42.1445 346.262 43.3963 346.262 44.7154C346.262 46.0345 346.077 47.2863 345.707 48.4708C345.363 49.6284 344.821 50.6514 344.081 51.5398C343.341 52.4012 342.389 53.0877 341.225 53.5992C340.088 54.1107 338.74 54.3664 337.18 54.3664C335.567 54.3664 334.166 54.0972 332.976 53.5588C331.812 53.0204 330.847 52.307 330.08 51.4186C329.314 50.5033 328.745 49.4534 328.375 48.2689C328.005 47.0844 327.82 45.8326 327.82 44.5135C327.82 43.1944 328.005 41.9426 328.375 40.7581C328.745 39.5736 329.3 38.5371 330.041 37.6487C330.808 36.7334 331.773 36.02 332.936 35.5085C334.099 34.9701 335.461 34.7009 337.021 34.7009ZM337.14 52.2262C338.198 52.2262 339.11 52.0243 339.877 51.6205C340.67 51.2167 341.318 50.6783 341.82 50.0053C342.349 49.3053 342.732 48.5112 342.97 47.6228C343.208 46.7075 343.327 45.7518 343.327 44.7558C343.327 43.7328 343.195 42.7502 342.931 41.808C342.693 40.8657 342.309 40.0447 341.781 39.3447C341.252 38.6179 340.577 38.0391 339.758 37.6084C338.965 37.1776 338.013 36.9623 336.902 36.9623C335.818 36.9623 334.893 37.1642 334.126 37.568C333.359 37.9718 332.724 38.5102 332.222 39.1832C331.72 39.8562 331.35 40.6504 331.112 41.5657C330.874 42.4541 330.755 43.3963 330.755 44.3923C330.755 45.4153 330.874 46.3979 331.112 47.3401C331.376 48.2824 331.759 49.1169 332.262 49.8438C332.791 50.5706 333.452 51.1494 334.245 51.5801C335.065 52.0109 336.03 52.2262 337.14 52.2262Z" fill="#DBDBDB"/>
<path d="M364.052 53.8818V41.6061C364.052 39.9908 363.695 38.8332 362.982 38.1333C362.268 37.4334 361.355 37.0834 360.245 37.0834C359.584 37.0834 358.923 37.1911 358.262 37.4064C357.627 37.6218 357.032 37.9449 356.477 38.3756C355.922 38.7794 355.433 39.2909 355.01 39.9101C354.586 40.5023 354.256 41.1888 354.018 41.9695V53.8818H351.242V35.3066H353.423L353.74 38.7794H353.899C354.243 37.6487 355.01 36.6931 356.199 35.9124C357.389 35.1047 358.87 34.7009 360.641 34.7009C361.488 34.7009 362.281 34.8221 363.021 35.0644C363.788 35.2797 364.449 35.6431 365.004 36.1546C365.559 36.6661 365.996 37.3391 366.313 38.1737C366.657 39.0082 366.829 40.0312 366.829 41.2426V53.8818H364.052Z" fill="#DBDBDB"/>
</svg>
